<?xml version="1.0" encoding="UTF-8"?>
<svg width="18px" height="18px" viewBox="0 0 18 18" version="1.1" xmlns="http://www.w3.org/2000/svg" xmlns:xlink="http://www.w3.org/1999/xlink">
    <!-- Generator: Sketch 59.1 (86144) - https://sketch.com -->
    <title>ic_filter</title>
    <desc>Created with Sketch.</desc>
    <g id="Page-1" stroke="none" stroke-width="1" fill="none" fill-rule="evenodd">
        <g id="Artboard" transform="translate(-34.000000, -30.000000)" fill="#FFFFFF" fill-rule="nonzero">
            <g id="ic_filter" transform="translate(34.000000, 30.000000)">
                <path d="M17.9695846,1.02692308 C17.9695846,0.483138462 17.5287692,0.0423230769 16.9849846,0.0423230769 L0.984692308,0.0423230769 C0.781938462,0.0423230769 0.584076923,0.104953846 0.418246154,0.221584615 C-0.0265384615,0.534415385 -0.133476923,1.14863077 0.179353846,1.59341538 L5.98066154,9.8412 L5.99695385,15.8415231 C5.99796923,16.2160615 6.10933846,16.5820154 6.31707692,16.8936923 C6.90101538,17.7696462 8.08449231,18.0063231 8.96044615,17.4223846 L11.0324769,16.0410462 C11.583,15.6740308 11.9124462,15.0550154 11.9093538,14.3934 L11.8883077,9.87747692 L17.7869077,1.59826154 C17.9057538,1.43141538 17.9695846,1.23170769 17.9695846,1.02692308 Z M9.9162,9.25176923 L9.9402,14.4024923 L7.96592308,15.7187077 L7.94824615,9.21558462 L2.88106154,2.01152308 L15.0745846,2.01152308 L9.9162,9.25176923 Z" id="Shape"></path>
            </g>
        </g>
    </g>
</svg>