<?xml version="1.0" encoding="UTF-8"?>
<svg width="18px" height="18px" viewBox="0 0 18 18" version="1.1" xmlns="http://www.w3.org/2000/svg" xmlns:xlink="http://www.w3.org/1999/xlink">
    <!-- Generator: Sketch 59.1 (86144) - https://sketch.com -->
    <title>ic_list</title>
    <desc>Created with Sketch.</desc>
    <g id="Page-1" stroke="none" stroke-width="1" fill="none" fill-rule="evenodd">
        <g id="Artboard" transform="translate(-29.000000, -28.000000)" fill="#FFFFFF" fill-rule="nonzero">
            <g id="ic_list" transform="translate(29.000000, 28.000000)">
                <path d="M16.9314613,6.66178624 L1.62380858,6.66178624 L1.06782677,6.66178624 C0.47909828,6.66178624 0,7.05475842 0,7.54026354 L0,10.4597365 C0,10.9440703 0.47909828,11.3382138 1.06782677,11.3382138 L1.62380858,11.3382138 L16.9321732,11.3382138 C17.5216136,11.3382138 18,10.9440703 18,10.4597365 L18,7.54026354 C17.9992881,7.05592972 17.5216136,6.66178624 16.9314613,6.66178624 Z M16.9314613,0 L1.62380858,0 L1.06782677,0 C0.47909828,0 0,0.392972182 0,0.878477306 L0,3.79795022 C0,4.28345534 0.47909828,4.67642753 1.06782677,4.67642753 L1.62380858,4.67642753 L16.9321732,4.67642753 C17.5216136,4.67642753 18,4.28345534 18,3.79795022 L18,0.878477306 C17.9992881,0.394143485 17.5216136,0 16.9314613,0 Z M16.9314613,13.3241581 L1.62380858,13.3241581 L1.06782677,13.3241581 C0.47909828,13.3241581 0,13.7171303 0,14.2026354 L0,17.1215227 C0,17.6076135 0.47909828,18 1.06782677,18 L1.62380858,18 L16.9321732,18 C17.5216136,18 18,17.6076135 18,17.1215227 L18,14.2026354 C17.9992881,13.7171303 17.5216136,13.3241581 16.9314613,13.3241581 Z" id="Shape"></path>
            </g>
        </g>
    </g>
</svg>