<?xml version="1.0" encoding="UTF-8"?>
<svg width="10px" height="12px" viewBox="0 0 10 12" version="1.1" xmlns="http://www.w3.org/2000/svg" xmlns:xlink="http://www.w3.org/1999/xlink">
    <!-- Generator: Sketch 59.1 (86144) - https://sketch.com -->
    <title>up-arrow-2</title>
    <desc>Created with Sketch.</desc>
    <g id="Page-1" stroke="none" stroke-width="1" fill="none" fill-rule="evenodd">
        <g id="Artboard" transform="translate(-27.000000, -18.000000)" fill="#FFFFFF" fill-rule="nonzero">
            <g id="up-arrow-2" transform="translate(27.000000, 18.000000)">
                <path d="M9.79578049,4.52165854 L5.46543902,0.191317073 C5.34192683,0.067804878 5.17714634,0 4.99792683,0 C4.82221951,0 4.65753659,0.067804878 4.53402439,0.191317073 L0.203585366,4.52165854 C-0.0522195122,4.77756098 -0.0522195122,5.19404878 0.203585366,5.4497561 L0.596756098,5.84312195 C0.720268293,5.96653659 0.88504878,6.03443902 1.06085366,6.03443902 C1.23656098,6.03443902 1.407,5.96653659 1.53041463,5.84312195 L4.06231707,3.31668293 L4.06231707,11.343122 C4.06231707,11.704878 4.34563415,12 4.70739024,12 L5.2634878,12 C5.6252439,12 5.9372439,11.704878 5.9372439,11.343122 L5.9372439,3.28819512 L8.4834878,5.84312195 C8.60690244,5.96653659 8.76729268,6.03443902 8.94309756,6.03443902 C9.11890244,6.03443902 9.2812439,5.96653659 9.40485366,5.84312195 L9.79685366,5.4497561 C10.0527561,5.19395122 10.0517805,4.77756098 9.79578049,4.52165854 Z" id="Path" transform="translate(5.000006, 6.000000) rotate(180.000000) translate(-5.000006, -6.000000) "></path>
            </g>
        </g>
    </g>
</svg>