<?xml version="1.0" encoding="UTF-8"?>
<svg width="14px" height="22px" viewBox="0 0 14 22" version="1.1" xmlns="http://www.w3.org/2000/svg" xmlns:xlink="http://www.w3.org/1999/xlink">
    <!-- Generator: Sketch 59.1 (86144) - https://sketch.com -->
    <title>Group</title>
    <desc>Created with Sketch.</desc>
    <g id="Page-1" stroke="none" stroke-width="1" fill="none" fill-rule="evenodd" fill-opacity="0.5">
        <g id="Artboard" transform="translate(-162.000000, -272.000000)" fill-rule="nonzero">
            <g id="Group" transform="translate(162.000000, 272.000000)">
                <g id="down-arrow" transform="translate(0.000000, 12.000000)" fill="#555555">
                    <path d="M13.7401235,0.329812656 C13.5670641,0.109876746 13.3619212,0 13.1248863,0 L0.875065843,0 C0.637935163,0 0.432935881,0.109876746 0.259732797,0.329812656 C0.0865297132,0.549991791 0,0.810302997 0,1.11123272 C0,1.41210164 0.0865297132,1.67241285 0.259732797,1.89240957 L6.38466695,9.66994412 C6.55806158,9.88988003 6.76306086,10 7,10 C7.23693914,10 7.44212996,9.88988003 7.61518939,9.66994412 L13.7401235,1.89234876 C13.9131351,1.67241285 14,1.41210164 14,1.11117192 C14,0.810302997 13.9131351,0.549991791 13.7401235,0.329812656 Z" id="Path"></path>
                </g>
                <g id="down-arrow" transform="translate(7.000000, 5.000000) rotate(180.000000) translate(-7.000000, -5.000000) " fill="#FF0000">
                    <path d="M13.7401235,0.329812656 C13.5670641,0.109876746 13.3619212,-5.68434189e-14 13.1248863,-5.68434189e-14 L0.875065843,-5.68434189e-14 C0.637935163,-5.68434189e-14 0.432935881,0.109876746 0.259732797,0.329812656 C0.0865297132,0.549991791 5.68434189e-14,0.810302997 5.68434189e-14,1.11123272 C5.68434189e-14,1.41210164 0.0865297132,1.67241285 0.259732797,1.89240957 L6.38466695,9.66994412 C6.55806158,9.88988003 6.76306086,10 7,10 C7.23693914,10 7.44212996,9.88988003 7.61518939,9.66994412 L13.7401235,1.89234876 C13.9131351,1.67241285 14,1.41210164 14,1.11117192 C14,0.810302997 13.9131351,0.549991791 13.7401235,0.329812656 Z" id="Path"></path>
                </g>
            </g>
        </g>
    </g>
</svg>