<?xml version="1.0" encoding="UTF-8"?>
<svg width="18px" height="18px" viewBox="0 0 18 18" version="1.1" xmlns="http://www.w3.org/2000/svg" xmlns:xlink="http://www.w3.org/1999/xlink">
    <!-- Generator: Sketch 59.1 (86144) - https://sketch.com -->
    <title>ic_tabbed</title>
    <desc>Created with Sketch.</desc>
    <g id="Page-1" stroke="none" stroke-width="1" fill="none" fill-rule="evenodd">
        <g id="Artboard" transform="translate(-29.000000, -28.000000)" fill="#FFFFFF" fill-rule="nonzero">
            <g id="ic_tabbed" transform="translate(38.000000, 37.000000) rotate(90.000000) translate(-38.000000, -37.000000) translate(29.000000, 28.000000)">
                <path d="M3.95977186,7.54026354 L3.95977186,10.4597365 C3.95977186,10.9440703 3.62648445,11.3382138 3.21582674,11.3382138 L0.743945113,11.3382138 C0.333287411,11.3382138 0,10.9440703 0,10.4597365 L0,7.54026354 C0,7.05475842 0.333287411,6.66178624 0.743945113,6.66178624 L3.21582674,6.66178624 C3.62648445,6.66178624 3.95977186,7.05592972 3.95977186,7.54026354 Z M17.2555589,6.66178624 L6.59085774,6.66178624 L6.20351032,6.66178624 C5.79334858,6.66178624 5.45956521,7.05475842 5.45956521,7.54026354 L5.45956521,10.4597365 C5.45956521,10.9440703 5.79334858,11.3382138 6.20351032,11.3382138 L6.59085774,11.3382138 L17.2560549,11.3382138 C17.6667126,11.3382138 18,10.9440703 18,10.4597365 L18,7.54026354 C17.999504,7.05592972 17.6667126,6.66178624 17.2555589,6.66178624 Z M3.21582674,0 L0.743945113,0 C0.333287411,0 0,0.392972182 0,0.878477306 L0,3.79795022 C0,4.28345534 0.333287411,4.67642753 0.743945113,4.67642753 L3.21582674,4.67642753 C3.62648445,4.67642753 3.95977186,4.28345534 3.95977186,3.79795022 L3.95977186,0.878477306 C3.95977186,0.394143485 3.62648445,0 3.21582674,0 Z M17.2555589,0 L6.59085774,0 L6.20351032,0 C5.79334858,0 5.45956521,0.392972182 5.45956521,0.878477306 L5.45956521,3.79795022 C5.45956521,4.28345534 5.79334858,4.67642753 6.20351032,4.67642753 L6.59085774,4.67642753 L17.2560549,4.67642753 C17.6667126,4.67642753 18,4.28345534 18,3.79795022 L18,0.878477306 C17.999504,0.394143485 17.6667126,0 17.2555589,0 Z M3.21582674,13.3241581 L0.743945113,13.3241581 C0.333287411,13.3241581 0,13.7171303 0,14.2026354 L0,17.1215227 C0,17.6076135 0.333287411,18 0.743945113,18 L3.21582674,18 C3.62648445,18 3.95977186,17.6076135 3.95977186,17.1215227 L3.95977186,14.2026354 C3.95977186,13.7171303 3.62648445,13.3241581 3.21582674,13.3241581 Z M17.2555589,13.3241581 L6.59085774,13.3241581 L6.20351032,13.3241581 C5.79334858,13.3241581 5.45956521,13.7171303 5.45956521,14.2026354 L5.45956521,17.1215227 C5.45956521,17.6076135 5.79334858,18 6.20351032,18 L6.59085774,18 L17.2560549,18 C17.6667126,18 18,17.6076135 18,17.1215227 L18,14.2026354 C17.999504,13.7171303 17.6667126,13.3241581 17.2555589,13.3241581 Z" id="Shape"></path>
            </g>
        </g>
    </g>
</svg>